<svg width="28" height="24" viewBox="0 0 28 24" fill="none" xmlns="http://www.w3.org/2000/svg">
<path d="M0.666687 2.00001C0.666687 1.55798 0.842282 1.13406 1.15484 0.821499C1.4674 0.508939 1.89133 0.333344 2.33335 0.333344H25.6667C26.1087 0.333344 26.5326 0.508939 26.8452 0.821499C27.1578 1.13406 27.3333 1.55798 27.3333 2.00001C27.3333 2.44204 27.1578 2.86596 26.8452 3.17852C26.5326 3.49108 26.1087 3.66668 25.6667 3.66668H2.33335C1.89133 3.66668 1.4674 3.49108 1.15484 3.17852C0.842282 2.86596 0.666687 2.44204 0.666687 2.00001Z" fill="white"/>
<path d="M0.666687 22C0.666687 21.558 0.842282 21.1341 1.15484 20.8215C1.4674 20.5089 1.89133 20.3333 2.33335 20.3333H25.6667C26.1087 20.3333 26.5326 20.5089 26.8452 20.8215C27.1578 21.1341 27.3333 21.558 27.3333 22C27.3333 22.442 27.1578 22.866 26.8452 23.1785C26.5326 23.4911 26.1087 23.6667 25.6667 23.6667H2.33335C1.89133 23.6667 1.4674 23.4911 1.15484 23.1785C0.842282 22.866 0.666687 22.442 0.666687 22Z" fill="white"/>
<path d="M12.3334 10.3333C11.8913 10.3333 11.4674 10.5089 11.1548 10.8215C10.8423 11.1341 10.6667 11.558 10.6667 12C10.6667 12.442 10.8423 12.866 11.1548 13.1785C11.4674 13.4911 11.8913 13.6667 12.3334 13.6667H25.6667C26.1087 13.6667 26.5326 13.4911 26.8452 13.1785C27.1578 12.866 27.3334 12.442 27.3334 12C27.3334 11.558 27.1578 11.1341 26.8452 10.8215C26.5326 10.5089 26.1087 10.3333 25.6667 10.3333H12.3334Z" fill="white"/>
</svg>
